# xmcd
#
# Track frame offsets:
#	150
#	20185
#	37454
#	52835
#	67786
#	83882
#	101676
#	121349
#	137955
#	154533
#	174545
#	190732
#	206527
#	222590
#	238510
#	253053
#	267707
#	283163
#	298139
#	316424
#
# Disc length: 4429 seconds
#
# Revision: 1
# Processed by: cddbd v1.5.1PL2 Copyright (c) Steve Scherf et al.
# Submitted via: audiograbber 1.83.01
#
DISCID=3c114b14
DTITLE=Hitovi leta 2005 - Hitovi leta 2005
DYEAR=2005
DGENRE=Pop
TTITLE0=COLONIA - Nema nade
TTITLE1=VESNA PISAROVIC - Ti ne znas sto je ljubav
TTITLE2=TONY CETINSKI - Kad bi dao Bog
TTITLE3=IVANA BANFIC - Ljubav na prvi i poslednji pogled
TTITLE4=KEMAL MONTENO - Nemoj da te prevari ovaj pramen sjedi
TTITLE5=CRVENA JABUKA - Dobro neka svira
TTITLE6=GORAN KARAN - Ne salji ladje
TTITLE7=IVANA BRKIC - Kora pod nogama
TTITLE8=SANDI CENOV - Kad mi nije sudjeno
TTITLE9=LEO - Kad strasti nestane
TTITLE10=E.T. - S nama je gotovo
TTITLE11=KARMA - Zemljotres
TTITLE12=VLATKA POKOS - Ruke su mi vezane
TTITLE13=LANA - Ovo nije istina
TTITLE14=MAJA SUPUT and EN JOY - Zlato
TTITLE15=FEMINNEM - Kaznit cu te ja
TTITLE16=DRAZEN ZECIC - Sedam godina
TTITLE17=MIROSLAV RUS - S pricom da je jedan Bog
TTITLE18=NEKI TO VOLE VRUCE - Na dlanu svijet
TTITLE19=ZANAMARI - Bar su suze besplatne
EXTD=
EXTT0=
EXTT1=
EXTT2=
EXTT3=
EXTT4=
EXTT5=
EXTT6=
EXTT7=
EXTT8=
EXTT9=
EXTT10=
EXTT11=
EXTT12=
EXTT13=
EXTT14=
EXTT15=
EXTT16=
EXTT17=
EXTT18=
EXTT19=
PLAYORDER=
